<?xml version="1.0" encoding="UTF-8"?>
<!-- Created with Inkscape (http://www.inkscape.org/) -->
<svg width="100mm" height="100mm" version="1.1" viewBox="0 0 100 100" xmlns="http://www.w3.org/2000/svg">
 <g stroke="#323232" stroke-width=".8">
  <g>
   <path d="m1.5275 2.7505 1.2948 95.216 93.292 0.12208 1.0926-14.127-79.867-0.3862-0.054576-81.208z" fill="#fed203"/>
   <path d="m54.145 2.7757 0.31175 11.331c-67.993 33.581 40.601 57.764 42.619 67.614l-77.197-0.16882-0.21528-14.134c14.674 5.7576 29.323 5.9039 45.624 7.0755-35.859-5.3731-50.731-18.21-45.722-47.588 5.7886-18.567 17.543-26.193 34.58-24.129z" fill="#00abe6"/>
   <path d="m95.519 3.2403 0.72005 10.384c-15.016 1.144-35.037 12.164-43.748 24.932 17.866 17.588 30.641 19.196 44.132 23.05l0.27405 15.072c-36.239-14.836-60.738-31.165-60.862-37.66 0.17871-14.61 41.086-37.683 59.484-35.778z" fill="#00abe6"/>
  </g>
  <path d="m70.119 25.14c-8.4216 6.1342-11.337 8.4919-14.885 12.555 13.396 12.843 26.508 19.122 39.362 19.418l1.0584-9.4873c-10.341-3.7651-19.707-0.99114-25.867-7.0357 0.65991-7.8727 18.76-4.8597 18.599-24.351-5.3376 1.8925-11.225 3.6291-18.268 8.9008z" fill="#00c0b5"/>
 </g>
</svg>
