<?xml version="1.0" encoding="UTF-8"?>
<!-- Created with Inkscape (http://www.inkscape.org/) -->
<svg width="100mm" height="100mm" version="1.1" viewBox="0 0 100 100" xmlns="http://www.w3.org/2000/svg">
 <g stroke="#000" stroke-width=".15857">
  <path d="m3.5988 10.148c-1.727 26.883-1.3788 53.765 0.62856 80.648 11.364 1.0332 22.728 1.2252 34.092-1.9827 0.99787-5.3316-0.11456-8.7929-1.2949-12.194-6.4477 1.981-13.131 2.928-20.554 0.63597 0.4086-23.667-0.39775-46.745-3.4919-68.712-3.1267-0.28998-6.2534-1.4178-9.3802 1.6049z" fill="#fed203"/>
  <path d="m49.786 10.13 0.43732 11.06c-10.967 0.86239-17.702 4.6616-20.052 12.277 0.83072 9.5259 19.734 10.827 21.874 24.598 2.734 13.629 4.6514 25.436-6.6844 29.866-4.6497-2.1882-4.9901-7.8931-5.5877-12.81l5.948-8.4556c-0.71478-13.784-26.232-17.643-27.783-29.877 1.9022-17.334 11.233-29.894 31.849-26.658z" fill="#00abd7"/>
  <path d="m75.45 11.261c3.6811 0.59001-2.2175 5.8547-2.11 8.9779-7.1374 2.3406-13.612 7.677-12.86 23.48 1.683 13.626 6.5709 22.994 13.195 33.139 0.89464 3.8971 1.7112 14.252-0.53652 16.261-10.071-7.6538-16.014-20.391-20.381-47.694-1.7775-27.298 10.186-30.627 22.693-34.164z" fill="#00abd7"/>
  <path d="m80.161 11.888c-11.509 29.422-9.5132 58.161 2.0358 74.957 5.0045 3.8297 10.009 2.3065 15.013 0.08089 1.5681-4.8357 0.12531-12.594-2.3195-15.309-15.227 7.0236-14.643-15.617-3.9697-58.794-3.0037-3.9448-8.2489-6.0596-10.76-0.93353z" fill="#00c0b5"/>
 </g>
</svg>
